<?xml version="1.0" encoding="utf-8"?>
<!-- Generator: Adobe Illustrator 17.0.0, SVG Export Plug-In . SVG Version: 6.00 Build 0)  -->
<!DOCTYPE svg PUBLIC "-//W3C//DTD SVG 1.1//EN" "http://www.w3.org/Graphics/SVG/1.1/DTD/svg11.dtd">
<svg version="1.1" id="Layer_1" xmlns="http://www.w3.org/2000/svg" xmlns:xlink="http://www.w3.org/1999/xlink" x="0px" y="0px"
	 width="127.56px" height="56.69px" viewBox="0 0 127.56 56.69" enable-background="new 0 0 127.56 56.69" xml:space="preserve">
<path id="XMLID_3_" fill="#444640" stroke="#444640" stroke-width="5" stroke-miterlimit="10" d="M79.068,36.669
	c0,4.411-3.576,7.986-7.986,7.986H54.949c-4.411,0-7.986-3.576-7.986-7.986V20.535c0-4.411,3.576-7.986,7.986-7.986h16.133
	c4.411,0,7.986,3.576,7.986,7.986V36.669z"/>
<text transform="matrix(0.9559 0 0 1 83.5043 41.2572)" fill="#878981" font-family="'Calibri'" font-size="11.8285">Software</text>
<path fill="#EE8B22" d="M56.765,41.766c0,7.176-5.817,12.993-12.993,12.993H17.526c-7.176,0-12.993-5.817-12.993-12.993V15.52
	c0-7.176,5.817-12.993,12.993-12.993h26.246c7.176,0,12.993,5.817,12.993,12.993V41.766z"/>
<polygon fill="#C87029" points="4.589,20.968 38.608,54.759 42.685,54.759 47.048,54.34 50.69,52.753 53.078,50.829 54.368,49.276 
	55.44,47.458 56.056,45.985 56.737,42.416 56.737,38.747 56.737,37.355 23.496,2.351 21.458,2.351 18.224,2.351 16.397,2.633 
	13.699,3.101 10.366,4.681 8.541,6.147 7.468,7.296 6.31,8.979 5.263,11.248 4.589,15.003 "/>
<text transform="matrix(1 0 0 1 65.5424 29.4289)"><tspan x="0" y="0" fill="#FFFFFF" font-family="'Calibri'" font-size="18.3998">M</tspan><tspan x="15.731" y="0" fill="#444640" font-family="'Calibri'" font-size="18.3998">yra</tspan></text>
</svg>
